<svg xmlns="http://www.w3.org/2000/svg" width="512" height="512" viewBox="0 0 512 512" role="img" aria-label="1House">
  <rect x="32" y="32" width="448" height="448" rx="112" fill="#fff" stroke="#111" stroke-width="20" />

  <g transform="translate(90 84) scale(1.3)">
    <path fill="#111" d="M240,208H224V136l2.34,2.34A8,8,0,0,0,237.66,127L139.31,28.68a16,16,0,0,0-22.62,0L18.34,127a8,8,0,0,0,11.32,11.31L32,136v72H16a8,8,0,0,0,0,16H240a8,8,0,0,0,0-16ZM48,120l80-80,80,80v88H160V152a8,8,0,0,0-8-8H104a8,8,0,0,0-8,8v56H48Zm96,88H112V160h32Z"></path>
  </g>

  <text
    x="256"
    y="430"
    text-anchor="middle"
    font-family="ui-sans-serif, system-ui, -apple-system, Segoe UI, Roboto, Helvetica, Arial, sans-serif"
    font-weight="700"
    font-size="54"
    fill="#111"
    letter-spacing="0.5"
  >1House</text>
</svg>

